<?xml version="1.0" standalone="no"?>
<!DOCTYPE svg PUBLIC "-//W3C//DTD SVG 20010904//EN"
 "http://www.w3.org/TR/2001/REC-SVG-20010904/DTD/svg10.dtd">
<svg version="1.0" xmlns="http://www.w3.org/2000/svg"
 width="400.000000pt" height="400.000000pt" viewBox="0 0 400.000000 400.000000"
 preserveAspectRatio="xMidYMid meet">

<g transform="translate(0.000000,400.000000) scale(0.100000,-0.100000)"
fill="#da2244" stroke="none">
<path d="M1257 3602 c-97 -97 -177 -182 -177 -187 0 -6 316 -326 702 -712
l703 -703 -703 -703 c-386 -386 -702 -707 -702 -712 0 -6 81 -91 179 -189 164
-164 181 -178 198 -166 32 25 1763 1763 1763 1770 0 11 -1765 1780 -1776 1780
-5 0 -89 -80 -187 -178z"/>
</g>
</svg>
